<mxfile host="app.diagrams.net" modified="2023-06-21T17:31:38.445Z" agent="Mozilla/5.0 (Windows NT 10.0; Win64; x64) AppleWebKit/537.36 (KHTML, like Gecko) Chrome/113.0.0.0 Safari/537.36 OPR/99.0.0.0" version="21.5.0" etag="Wt8d3viLhWofeojVOEtP" type="github">
  <diagram name="Page-1" id="EJpL8FAHefZAndS8GX4c">
    <mxGraphModel>
      <root>
        <mxCell id="0" />
        <mxCell id="1" parent="0" />
      </root>
    </mxGraphModel>
  </diagram>
</mxfile>
